<?xml version="1.0" encoding="UTF-8" standalone="no"?>
<!DOCTYPE svg PUBLIC "-//W3C//DTD SVG 1.1//EN" "http://www.w3.org/Graphics/SVG/1.1/DTD/svg11.dtd">
<svg width="100%" height="100%" viewBox="0 0 128 128" version="1.1" xmlns="http://www.w3.org/2000/svg" xmlns:xlink="http://www.w3.org/1999/xlink" xml:space="preserve" xmlns:serif="http://www.serif.com/" style="fill-rule:evenodd;clip-rule:evenodd;stroke-linejoin:round;stroke-miterlimit:2;">
    <g transform="matrix(7.5,0,0,7.5,4,19)">
        <path d="M3,2C1.903,2 1,2.903 1,4L1,5C0.451,5 -0,5.451 0,6C0,6.549 0.451,7 1,7L1,8C1,9.097 1.903,10 3,10L4,10L4,8L3,8L3,4L4,4L4,2L3,2ZM6,2L6,10L10,10L10,8L8,8L8,7L10,7L10,5L8,5L8,4L10,4L10,2L6,2ZM12,2L12,4L13,4L13,8L12,8L12,10L13,10C14.097,10 15,9.097 15,8L15,7C15.549,7 16,6.549 16,6C16,5.451 15.549,5 15,5L15,4C15,2.903 14.097,2 13,2L12,2Z" style="fill:rgb(224,224,224);fill-rule:nonzero;stroke:rgb(179,179,179);stroke-width:0.67px;"/>
    </g>
</svg>
